<mxfile host="app.diagrams.net" modified="2023-04-03T16:57:04.005Z" agent="Mozilla/5.0 (Windows NT 10.0; Win64; x64) AppleWebKit/537.36 (KHTML, like Gecko) Chrome/111.0.0.0 Safari/537.36" etag="IZJp8TAHDM6fAmFFzgR5" version="21.1.4" type="github">
  <diagram name="第 1 页" id="h2tLCAjyh1uUfsBo2IlS">
    <mxGraphModel dx="1050" dy="541" grid="0" gridSize="10" guides="1" tooltips="1" connect="1" arrows="1" fold="1" page="1" pageScale="1" pageWidth="1654" pageHeight="2336" math="0" shadow="0">
      <root>
        <mxCell id="0" />
        <mxCell id="1" parent="0" />
        <mxCell id="hPDCbiSNPmsi-Ium7zuM-1" value="纵向：级联对象下钻分析" style="rounded=1;whiteSpace=wrap;html=1;fillColor=#0050ef;strokeColor=#001DBC;fontColor=#ffffff;" vertex="1" parent="1">
          <mxGeometry x="190" y="90" width="470" height="40" as="geometry" />
        </mxCell>
        <mxCell id="hPDCbiSNPmsi-Ium7zuM-2" value="" style="rounded=1;whiteSpace=wrap;html=1;dashed=1;strokeColor=#007FFF;" vertex="1" parent="1">
          <mxGeometry x="190" y="130" width="470" height="80" as="geometry" />
        </mxCell>
        <mxCell id="hPDCbiSNPmsi-Ium7zuM-4" value="应用" style="text;html=1;strokeColor=none;fillColor=none;align=center;verticalAlign=middle;whiteSpace=wrap;rounded=0;fontColor=#0000FF;fontStyle=1" vertex="1" parent="1">
          <mxGeometry x="194" y="155" width="60" height="30" as="geometry" />
        </mxCell>
        <mxCell id="hPDCbiSNPmsi-Ium7zuM-5" value="" style="sketch=0;html=1;dashed=0;whitespace=wrap;fillColor=#2875E2;strokeColor=#ffffff;points=[[0.005,0.63,0],[0.1,0.2,0],[0.9,0.2,0],[0.5,0,0],[0.995,0.63,0],[0.72,0.99,0],[0.5,1,0],[0.28,0.99,0]];verticalLabelPosition=bottom;align=center;verticalAlign=top;shape=mxgraph.kubernetes.icon;prIcon=svc" vertex="1" parent="1">
          <mxGeometry x="275" y="137" width="50" height="48" as="geometry" />
        </mxCell>
        <mxCell id="hPDCbiSNPmsi-Ium7zuM-6" value="" style="sketch=0;html=1;dashed=0;whitespace=wrap;fillColor=#2875E2;strokeColor=#ffffff;points=[[0.005,0.63,0],[0.1,0.2,0],[0.9,0.2,0],[0.5,0,0],[0.995,0.63,0],[0.72,0.99,0],[0.5,1,0],[0.28,0.99,0]];verticalLabelPosition=bottom;align=center;verticalAlign=top;shape=mxgraph.kubernetes.icon;prIcon=node;direction=south;" vertex="1" parent="1">
          <mxGeometry x="258" y="171" width="38" height="40" as="geometry" />
        </mxCell>
        <mxCell id="hPDCbiSNPmsi-Ium7zuM-7" value="" style="sketch=0;html=1;dashed=0;whitespace=wrap;fillColor=#2875E2;strokeColor=#ffffff;points=[[0.005,0.63,0],[0.1,0.2,0],[0.9,0.2,0],[0.5,0,0],[0.995,0.63,0],[0.72,0.99,0],[0.5,1,0],[0.28,0.99,0]];verticalLabelPosition=bottom;align=center;verticalAlign=top;shape=mxgraph.kubernetes.icon;prIcon=node;direction=south;" vertex="1" parent="1">
          <mxGeometry x="305" y="171" width="38" height="40" as="geometry" />
        </mxCell>
        <mxCell id="hPDCbiSNPmsi-Ium7zuM-8" value="" style="sketch=0;html=1;dashed=0;whitespace=wrap;fillColor=#2875E2;strokeColor=#ffffff;points=[[0.005,0.63,0],[0.1,0.2,0],[0.9,0.2,0],[0.5,0,0],[0.995,0.63,0],[0.72,0.99,0],[0.5,1,0],[0.28,0.99,0]];verticalLabelPosition=bottom;align=center;verticalAlign=top;shape=mxgraph.kubernetes.icon;prIcon=svc" vertex="1" parent="1">
          <mxGeometry x="422" y="136" width="50" height="48" as="geometry" />
        </mxCell>
        <mxCell id="hPDCbiSNPmsi-Ium7zuM-9" value="" style="sketch=0;html=1;dashed=0;whitespace=wrap;fillColor=#2875E2;strokeColor=#ffffff;points=[[0.005,0.63,0],[0.1,0.2,0],[0.9,0.2,0],[0.5,0,0],[0.995,0.63,0],[0.72,0.99,0],[0.5,1,0],[0.28,0.99,0]];verticalLabelPosition=bottom;align=center;verticalAlign=top;shape=mxgraph.kubernetes.icon;prIcon=node;direction=south;" vertex="1" parent="1">
          <mxGeometry x="405" y="170" width="38" height="40" as="geometry" />
        </mxCell>
        <mxCell id="hPDCbiSNPmsi-Ium7zuM-10" value="" style="sketch=0;html=1;dashed=0;whitespace=wrap;fillColor=#2875E2;strokeColor=#ffffff;points=[[0.005,0.63,0],[0.1,0.2,0],[0.9,0.2,0],[0.5,0,0],[0.995,0.63,0],[0.72,0.99,0],[0.5,1,0],[0.28,0.99,0]];verticalLabelPosition=bottom;align=center;verticalAlign=top;shape=mxgraph.kubernetes.icon;prIcon=node;direction=south;" vertex="1" parent="1">
          <mxGeometry x="452" y="170" width="38" height="40" as="geometry" />
        </mxCell>
        <mxCell id="hPDCbiSNPmsi-Ium7zuM-11" value="前端" style="text;html=1;strokeColor=none;fillColor=none;align=center;verticalAlign=middle;whiteSpace=wrap;rounded=0;" vertex="1" parent="1">
          <mxGeometry x="315" y="130" width="60" height="30" as="geometry" />
        </mxCell>
        <mxCell id="hPDCbiSNPmsi-Ium7zuM-12" value="后端" style="text;html=1;strokeColor=none;fillColor=none;align=center;verticalAlign=middle;whiteSpace=wrap;rounded=0;" vertex="1" parent="1">
          <mxGeometry x="455" y="130" width="60" height="30" as="geometry" />
        </mxCell>
        <mxCell id="hPDCbiSNPmsi-Ium7zuM-13" value="" style="endArrow=classic;startArrow=classic;html=1;rounded=0;exitX=0.1;exitY=0.2;exitDx=0;exitDy=0;exitPerimeter=0;" edge="1" parent="1">
          <mxGeometry width="50" height="50" relative="1" as="geometry">
            <mxPoint x="339.4" y="175" as="sourcePoint" />
            <mxPoint x="409" y="175" as="targetPoint" />
          </mxGeometry>
        </mxCell>
        <mxCell id="hPDCbiSNPmsi-Ium7zuM-15" value="调用" style="text;html=1;strokeColor=none;fillColor=none;align=center;verticalAlign=middle;whiteSpace=wrap;rounded=0;" vertex="1" parent="1">
          <mxGeometry x="355" y="171" width="40" height="30" as="geometry" />
        </mxCell>
        <mxCell id="hPDCbiSNPmsi-Ium7zuM-16" value="..." style="text;html=1;strokeColor=none;fillColor=none;align=center;verticalAlign=middle;whiteSpace=wrap;rounded=0;" vertex="1" parent="1">
          <mxGeometry x="485" y="160" width="40" height="30" as="geometry" />
        </mxCell>
        <mxCell id="hPDCbiSNPmsi-Ium7zuM-17" value="微服务K8S集群部署，前后端及各服务之间调用：异常、性能、延迟、负载等监控" style="text;html=1;strokeColor=none;fillColor=none;align=left;verticalAlign=middle;whiteSpace=wrap;rounded=0;" vertex="1" parent="1">
          <mxGeometry x="522" y="137" width="128" height="70" as="geometry" />
        </mxCell>
        <mxCell id="hPDCbiSNPmsi-Ium7zuM-18" value="" style="rounded=1;whiteSpace=wrap;html=1;dashed=1;strokeColor=#007FFF;" vertex="1" parent="1">
          <mxGeometry x="190" y="230" width="470" height="70" as="geometry" />
        </mxCell>
        <mxCell id="hPDCbiSNPmsi-Ium7zuM-19" value="服务" style="text;html=1;strokeColor=none;fillColor=none;align=center;verticalAlign=middle;whiteSpace=wrap;rounded=0;fontStyle=1;fontColor=#0000FF;" vertex="1" parent="1">
          <mxGeometry x="198" y="250" width="60" height="30" as="geometry" />
        </mxCell>
        <mxCell id="hPDCbiSNPmsi-Ium7zuM-20" value="应用底座&lt;br&gt;GSCloud" style="ellipse;shape=cloud;whiteSpace=wrap;html=1;fillColor=#3399FF;fontColor=#ffffff;strokeColor=#3399FF;" vertex="1" parent="1">
          <mxGeometry x="250" y="232.5" width="90" height="65" as="geometry" />
        </mxCell>
        <mxCell id="hPDCbiSNPmsi-Ium7zuM-23" value="应用底座&lt;br&gt;GSCloud" style="ellipse;shape=cloud;whiteSpace=wrap;html=1;fillColor=#3399FF;fontColor=#ffffff;strokeColor=#3399FF;" vertex="1" parent="1">
          <mxGeometry x="340" y="232.5" width="90" height="65" as="geometry" />
        </mxCell>
        <mxCell id="hPDCbiSNPmsi-Ium7zuM-24" value="应用底座&lt;br&gt;GSCloud" style="ellipse;shape=cloud;whiteSpace=wrap;html=1;fillColor=#3399FF;strokeColor=#3399FF;fontColor=#ffffff;" vertex="1" parent="1">
          <mxGeometry x="430" y="230" width="90" height="65" as="geometry" />
        </mxCell>
        <mxCell id="hPDCbiSNPmsi-Ium7zuM-25" value="对于GSCloud底座的监控、接口、实例、负载、延迟、内部产品的调用等监控" style="text;html=1;strokeColor=none;fillColor=none;align=left;verticalAlign=middle;whiteSpace=wrap;rounded=0;" vertex="1" parent="1">
          <mxGeometry x="525" y="230" width="128" height="70" as="geometry" />
        </mxCell>
        <mxCell id="hPDCbiSNPmsi-Ium7zuM-27" value="" style="endArrow=classic;html=1;rounded=0;exitX=0.9;exitY=0.2;exitDx=0;exitDy=0;exitPerimeter=0;entryX=0.625;entryY=0.2;entryDx=0;entryDy=0;entryPerimeter=0;strokeColor=#4D4D4D;" edge="1" parent="1" source="hPDCbiSNPmsi-Ium7zuM-6" target="hPDCbiSNPmsi-Ium7zuM-20">
          <mxGeometry width="50" height="50" relative="1" as="geometry">
            <mxPoint x="420" y="230" as="sourcePoint" />
            <mxPoint x="470" y="180" as="targetPoint" />
          </mxGeometry>
        </mxCell>
        <mxCell id="hPDCbiSNPmsi-Ium7zuM-28" value="" style="endArrow=classic;html=1;rounded=0;exitX=0.9;exitY=0.2;exitDx=0;exitDy=0;exitPerimeter=0;entryX=0.25;entryY=0.25;entryDx=0;entryDy=0;entryPerimeter=0;strokeColor=#4D4D4D;" edge="1" parent="1" source="hPDCbiSNPmsi-Ium7zuM-7" target="hPDCbiSNPmsi-Ium7zuM-23">
          <mxGeometry width="50" height="50" relative="1" as="geometry">
            <mxPoint x="298" y="217" as="sourcePoint" />
            <mxPoint x="316" y="256" as="targetPoint" />
          </mxGeometry>
        </mxCell>
        <mxCell id="hPDCbiSNPmsi-Ium7zuM-29" value="" style="endArrow=classic;html=1;rounded=0;exitX=0.995;exitY=0.63;exitDx=0;exitDy=0;exitPerimeter=0;entryX=0.625;entryY=0.2;entryDx=0;entryDy=0;entryPerimeter=0;strokeColor=#4D4D4D;" edge="1" parent="1" source="hPDCbiSNPmsi-Ium7zuM-9" target="hPDCbiSNPmsi-Ium7zuM-23">
          <mxGeometry width="50" height="50" relative="1" as="geometry">
            <mxPoint x="420" y="230" as="sourcePoint" />
            <mxPoint x="470" y="180" as="targetPoint" />
          </mxGeometry>
        </mxCell>
        <mxCell id="hPDCbiSNPmsi-Ium7zuM-30" value="" style="endArrow=classic;html=1;rounded=0;exitX=0.81;exitY=0.621;exitDx=0;exitDy=0;exitPerimeter=0;entryX=0.4;entryY=0.1;entryDx=0;entryDy=0;entryPerimeter=0;strokeColor=#4D4D4D;" edge="1" parent="1" source="hPDCbiSNPmsi-Ium7zuM-10" target="hPDCbiSNPmsi-Ium7zuM-24">
          <mxGeometry width="50" height="50" relative="1" as="geometry">
            <mxPoint x="429" y="220" as="sourcePoint" />
            <mxPoint x="406" y="256" as="targetPoint" />
          </mxGeometry>
        </mxCell>
        <mxCell id="hPDCbiSNPmsi-Ium7zuM-31" value="" style="rounded=1;whiteSpace=wrap;html=1;dashed=1;strokeColor=#007FFF;" vertex="1" parent="1">
          <mxGeometry x="190" y="320" width="470" height="70" as="geometry" />
        </mxCell>
        <mxCell id="hPDCbiSNPmsi-Ium7zuM-32" value="进程" style="text;html=1;strokeColor=none;fillColor=none;align=center;verticalAlign=middle;whiteSpace=wrap;rounded=0;fontStyle=1;fontColor=#0000FF;" vertex="1" parent="1">
          <mxGeometry x="194" y="340" width="60" height="30" as="geometry" />
        </mxCell>
        <mxCell id="hPDCbiSNPmsi-Ium7zuM-33" value="多线程状态" style="shape=note;size=20;whiteSpace=wrap;html=1;strokeColor=#66B2FF;fillColor=#3399FF;fontColor=#FFFFFF;" vertex="1" parent="1">
          <mxGeometry x="270" y="325" width="45" height="60" as="geometry" />
        </mxCell>
        <mxCell id="hPDCbiSNPmsi-Ium7zuM-34" value="多线程内存" style="shape=note;size=20;whiteSpace=wrap;html=1;strokeColor=#66B2FF;fillColor=#3399FF;fontColor=#FFFFFF;" vertex="1" parent="1">
          <mxGeometry x="332" y="325" width="45" height="60" as="geometry" />
        </mxCell>
        <mxCell id="hPDCbiSNPmsi-Ium7zuM-35" value="多线程堆栈" style="shape=note;size=20;whiteSpace=wrap;html=1;strokeColor=#66B2FF;fillColor=#3399FF;fontColor=#FFFFFF;" vertex="1" parent="1">
          <mxGeometry x="394" y="325" width="45" height="60" as="geometry" />
        </mxCell>
        <mxCell id="hPDCbiSNPmsi-Ium7zuM-36" value="多线程日志" style="shape=note;size=20;whiteSpace=wrap;html=1;strokeColor=#66B2FF;fillColor=#3399FF;fontColor=#FFFFFF;" vertex="1" parent="1">
          <mxGeometry x="455" y="325" width="45" height="60" as="geometry" />
        </mxCell>
        <mxCell id="hPDCbiSNPmsi-Ium7zuM-37" value="进程运行状态、内存分析、线程堆栈、热点方法、日志明细等监控" style="text;html=1;strokeColor=none;fillColor=none;align=left;verticalAlign=middle;whiteSpace=wrap;rounded=0;" vertex="1" parent="1">
          <mxGeometry x="525" y="320" width="128" height="70" as="geometry" />
        </mxCell>
        <mxCell id="hPDCbiSNPmsi-Ium7zuM-38" value="" style="rounded=1;whiteSpace=wrap;html=1;dashed=1;strokeColor=#007FFF;" vertex="1" parent="1">
          <mxGeometry x="190" y="410" width="470" height="70" as="geometry" />
        </mxCell>
        <mxCell id="hPDCbiSNPmsi-Ium7zuM-39" value="主机" style="text;html=1;strokeColor=none;fillColor=none;align=center;verticalAlign=middle;whiteSpace=wrap;rounded=0;fontStyle=1;fontColor=#0000FF;" vertex="1" parent="1">
          <mxGeometry x="194" y="430" width="60" height="30" as="geometry" />
        </mxCell>
        <mxCell id="hPDCbiSNPmsi-Ium7zuM-40" value="" style="sketch=0;aspect=fixed;pointerEvents=1;shadow=0;dashed=0;html=1;strokeColor=none;labelPosition=center;verticalLabelPosition=bottom;verticalAlign=top;align=center;fillColor=#007FFF;shape=mxgraph.mscae.enterprise.device" vertex="1" parent="1">
          <mxGeometry x="263.46" y="430" width="56.54" height="29.4" as="geometry" />
        </mxCell>
        <mxCell id="hPDCbiSNPmsi-Ium7zuM-44" value="" style="sketch=0;aspect=fixed;pointerEvents=1;shadow=0;dashed=0;html=1;strokeColor=none;labelPosition=center;verticalLabelPosition=bottom;verticalAlign=top;align=center;fillColor=#007FFF;shape=mxgraph.mscae.enterprise.device" vertex="1" parent="1">
          <mxGeometry x="332" y="430.6" width="56.54" height="29.4" as="geometry" />
        </mxCell>
        <mxCell id="hPDCbiSNPmsi-Ium7zuM-45" value="" style="sketch=0;aspect=fixed;pointerEvents=1;shadow=0;dashed=0;html=1;strokeColor=none;labelPosition=center;verticalLabelPosition=bottom;verticalAlign=top;align=center;fillColor=#007FFF;shape=mxgraph.mscae.enterprise.device" vertex="1" parent="1">
          <mxGeometry x="396.91999999999996" y="429.7" width="56.54" height="29.4" as="geometry" />
        </mxCell>
        <mxCell id="hPDCbiSNPmsi-Ium7zuM-46" value="" style="sketch=0;aspect=fixed;pointerEvents=1;shadow=0;dashed=0;html=1;strokeColor=none;labelPosition=center;verticalLabelPosition=bottom;verticalAlign=top;align=center;fillColor=#007FFF;shape=mxgraph.mscae.enterprise.device" vertex="1" parent="1">
          <mxGeometry x="465.46" y="430.3" width="56.54" height="29.4" as="geometry" />
        </mxCell>
        <mxCell id="hPDCbiSNPmsi-Ium7zuM-47" value="联动基础数据监控，&lt;br&gt;CPU、MEM、IO、网络负载等监控" style="text;html=1;strokeColor=none;fillColor=none;align=left;verticalAlign=middle;whiteSpace=wrap;rounded=0;" vertex="1" parent="1">
          <mxGeometry x="525" y="409.4" width="128" height="70" as="geometry" />
        </mxCell>
        <mxCell id="hPDCbiSNPmsi-Ium7zuM-48" value="" style="endArrow=classic;html=1;rounded=0;entryX=0.5;entryY=0;entryDx=0;entryDy=0;entryPerimeter=0;strokeColor=#4D4D4D;exitX=0.55;exitY=0.95;exitDx=0;exitDy=0;exitPerimeter=0;" edge="1" parent="1" source="hPDCbiSNPmsi-Ium7zuM-20" target="hPDCbiSNPmsi-Ium7zuM-33">
          <mxGeometry width="50" height="50" relative="1" as="geometry">
            <mxPoint x="298" y="290" as="sourcePoint" />
            <mxPoint x="316" y="256" as="targetPoint" />
          </mxGeometry>
        </mxCell>
        <mxCell id="hPDCbiSNPmsi-Ium7zuM-49" value="" style="endArrow=classic;html=1;rounded=0;entryX=0;entryY=0;entryDx=0;entryDy=0;entryPerimeter=0;strokeColor=#4D4D4D;exitX=0.55;exitY=0.95;exitDx=0;exitDy=0;exitPerimeter=0;" edge="1" parent="1" source="hPDCbiSNPmsi-Ium7zuM-20" target="hPDCbiSNPmsi-Ium7zuM-34">
          <mxGeometry width="50" height="50" relative="1" as="geometry">
            <mxPoint x="310" y="304" as="sourcePoint" />
            <mxPoint x="303" y="335" as="targetPoint" />
          </mxGeometry>
        </mxCell>
        <mxCell id="hPDCbiSNPmsi-Ium7zuM-50" value="" style="endArrow=classic;html=1;rounded=0;entryX=0;entryY=0;entryDx=0;entryDy=0;entryPerimeter=0;strokeColor=#4D4D4D;exitX=0.55;exitY=0.95;exitDx=0;exitDy=0;exitPerimeter=0;" edge="1" parent="1" source="hPDCbiSNPmsi-Ium7zuM-23" target="hPDCbiSNPmsi-Ium7zuM-35">
          <mxGeometry width="50" height="50" relative="1" as="geometry">
            <mxPoint x="310" y="304" as="sourcePoint" />
            <mxPoint x="342" y="335" as="targetPoint" />
          </mxGeometry>
        </mxCell>
        <mxCell id="hPDCbiSNPmsi-Ium7zuM-51" value="" style="endArrow=classic;html=1;rounded=0;entryX=0;entryY=0;entryDx=0;entryDy=0;entryPerimeter=0;strokeColor=#4D4D4D;exitX=0.55;exitY=0.95;exitDx=0;exitDy=0;exitPerimeter=0;" edge="1" parent="1" source="hPDCbiSNPmsi-Ium7zuM-23" target="hPDCbiSNPmsi-Ium7zuM-36">
          <mxGeometry width="50" height="50" relative="1" as="geometry">
            <mxPoint x="400" y="304" as="sourcePoint" />
            <mxPoint x="404" y="335" as="targetPoint" />
          </mxGeometry>
        </mxCell>
        <mxCell id="hPDCbiSNPmsi-Ium7zuM-52" value="" style="endArrow=classic;html=1;rounded=0;entryX=0.82;entryY=0;entryDx=0;entryDy=0;entryPerimeter=0;strokeColor=#4D4D4D;exitX=0.5;exitY=1;exitDx=0;exitDy=0;exitPerimeter=0;" edge="1" parent="1" source="hPDCbiSNPmsi-Ium7zuM-33" target="hPDCbiSNPmsi-Ium7zuM-40">
          <mxGeometry width="50" height="50" relative="1" as="geometry">
            <mxPoint x="310" y="304" as="sourcePoint" />
            <mxPoint x="342" y="335" as="targetPoint" />
          </mxGeometry>
        </mxCell>
        <mxCell id="hPDCbiSNPmsi-Ium7zuM-53" value="" style="endArrow=classic;html=1;rounded=0;entryX=0.82;entryY=0;entryDx=0;entryDy=0;entryPerimeter=0;strokeColor=#4D4D4D;exitX=0.5;exitY=1;exitDx=0;exitDy=0;exitPerimeter=0;" edge="1" parent="1" source="hPDCbiSNPmsi-Ium7zuM-34" target="hPDCbiSNPmsi-Ium7zuM-40">
          <mxGeometry width="50" height="50" relative="1" as="geometry">
            <mxPoint x="303" y="395" as="sourcePoint" />
            <mxPoint x="320" y="440" as="targetPoint" />
          </mxGeometry>
        </mxCell>
        <mxCell id="hPDCbiSNPmsi-Ium7zuM-54" value="" style="endArrow=classic;html=1;rounded=0;entryX=0.5;entryY=0;entryDx=0;entryDy=0;entryPerimeter=0;strokeColor=#4D4D4D;exitX=0.5;exitY=1;exitDx=0;exitDy=0;exitPerimeter=0;" edge="1" parent="1" source="hPDCbiSNPmsi-Ium7zuM-35" target="hPDCbiSNPmsi-Ium7zuM-45">
          <mxGeometry width="50" height="50" relative="1" as="geometry">
            <mxPoint x="365" y="395" as="sourcePoint" />
            <mxPoint x="320" y="440" as="targetPoint" />
          </mxGeometry>
        </mxCell>
        <mxCell id="hPDCbiSNPmsi-Ium7zuM-55" value="" style="endArrow=classic;html=1;rounded=0;entryX=0.5;entryY=0;entryDx=0;entryDy=0;entryPerimeter=0;strokeColor=#4D4D4D;exitX=0.5;exitY=1;exitDx=0;exitDy=0;exitPerimeter=0;" edge="1" parent="1" source="hPDCbiSNPmsi-Ium7zuM-36" target="hPDCbiSNPmsi-Ium7zuM-45">
          <mxGeometry width="50" height="50" relative="1" as="geometry">
            <mxPoint x="427" y="395" as="sourcePoint" />
            <mxPoint x="435" y="440" as="targetPoint" />
          </mxGeometry>
        </mxCell>
        <mxCell id="hPDCbiSNPmsi-Ium7zuM-56" value="横向：单笔请求链路追踪" style="rounded=1;whiteSpace=wrap;html=1;fillColor=#0050ef;strokeColor=#001DBC;fontColor=#ffffff;" vertex="1" parent="1">
          <mxGeometry x="680" y="90" width="470" height="40" as="geometry" />
        </mxCell>
        <mxCell id="hPDCbiSNPmsi-Ium7zuM-58" value="" style="rounded=1;whiteSpace=wrap;html=1;dashed=1;strokeColor=#007FFF;" vertex="1" parent="1">
          <mxGeometry x="680" y="130" width="470" height="351" as="geometry" />
        </mxCell>
        <mxCell id="hPDCbiSNPmsi-Ium7zuM-59" value="" style="sketch=0;pointerEvents=1;shadow=0;dashed=0;html=1;strokeColor=none;labelPosition=center;verticalLabelPosition=bottom;verticalAlign=top;align=center;fillColor=#3399FF;shape=mxgraph.mscae.intune.device_os" vertex="1" parent="1">
          <mxGeometry x="712" y="244" width="49" height="50" as="geometry" />
        </mxCell>
        <mxCell id="hPDCbiSNPmsi-Ium7zuM-60" value="" style="sketch=0;pointerEvents=1;shadow=0;dashed=0;html=1;strokeColor=none;labelPosition=center;verticalLabelPosition=bottom;verticalAlign=top;align=center;fillColor=#3399FF;shape=mxgraph.mscae.intune.computer_inventory" vertex="1" parent="1">
          <mxGeometry x="712" y="325.5" width="50" height="45" as="geometry" />
        </mxCell>
        <mxCell id="hPDCbiSNPmsi-Ium7zuM-61" value="" style="sketch=0;pointerEvents=1;shadow=0;dashed=0;html=1;strokeColor=none;labelPosition=center;verticalLabelPosition=bottom;verticalAlign=top;align=center;fillColor=#3399FF;shape=mxgraph.mscae.intune.intune_managed_app" vertex="1" parent="1">
          <mxGeometry x="712" y="403" width="50" height="38" as="geometry" />
        </mxCell>
        <mxCell id="hPDCbiSNPmsi-Ium7zuM-63" value="" style="image;sketch=0;aspect=fixed;html=1;points=[];align=center;fontSize=12;image=img/lib/mscae/Kubernetes.svg;" vertex="1" parent="1">
          <mxGeometry x="824" y="323" width="52.08" height="50" as="geometry" />
        </mxCell>
        <mxCell id="hPDCbiSNPmsi-Ium7zuM-64" value="" style="endArrow=classic;html=1;rounded=0;exitX=1;exitY=0.5;exitDx=0;exitDy=0;exitPerimeter=0;strokeColor=#666666;" edge="1" parent="1" source="hPDCbiSNPmsi-Ium7zuM-59" target="hPDCbiSNPmsi-Ium7zuM-63">
          <mxGeometry width="50" height="50" relative="1" as="geometry">
            <mxPoint x="882" y="403" as="sourcePoint" />
            <mxPoint x="932" y="353" as="targetPoint" />
          </mxGeometry>
        </mxCell>
        <mxCell id="hPDCbiSNPmsi-Ium7zuM-65" value="" style="endArrow=classic;html=1;rounded=0;exitX=1;exitY=0.58;exitDx=0;exitDy=0;exitPerimeter=0;strokeColor=#666666;" edge="1" parent="1" source="hPDCbiSNPmsi-Ium7zuM-60">
          <mxGeometry width="50" height="50" relative="1" as="geometry">
            <mxPoint x="771" y="279" as="sourcePoint" />
            <mxPoint x="822" y="352" as="targetPoint" />
          </mxGeometry>
        </mxCell>
        <mxCell id="hPDCbiSNPmsi-Ium7zuM-66" value="" style="endArrow=classic;html=1;rounded=0;exitX=0.98;exitY=0.02;exitDx=0;exitDy=0;exitPerimeter=0;strokeColor=#666666;" edge="1" parent="1" source="hPDCbiSNPmsi-Ium7zuM-61">
          <mxGeometry width="50" height="50" relative="1" as="geometry">
            <mxPoint x="772" y="362" as="sourcePoint" />
            <mxPoint x="822" y="373" as="targetPoint" />
          </mxGeometry>
        </mxCell>
        <mxCell id="hPDCbiSNPmsi-Ium7zuM-67" value="" style="sketch=0;html=1;dashed=0;whitespace=wrap;fillColor=#2875E2;strokeColor=#ffffff;points=[[0.005,0.63,0],[0.1,0.2,0],[0.9,0.2,0],[0.5,0,0],[0.995,0.63,0],[0.72,0.99,0],[0.5,1,0],[0.28,0.99,0]];verticalLabelPosition=bottom;align=center;verticalAlign=top;shape=mxgraph.kubernetes.icon;prIcon=node" vertex="1" parent="1">
          <mxGeometry x="902" y="277" width="50" height="48" as="geometry" />
        </mxCell>
        <mxCell id="hPDCbiSNPmsi-Ium7zuM-68" value="" style="sketch=0;html=1;dashed=0;whitespace=wrap;fillColor=#2875E2;strokeColor=#ffffff;points=[[0.005,0.63,0],[0.1,0.2,0],[0.9,0.2,0],[0.5,0,0],[0.995,0.63,0],[0.72,0.99,0],[0.5,1,0],[0.28,0.99,0]];verticalLabelPosition=bottom;align=center;verticalAlign=top;shape=mxgraph.kubernetes.icon;prIcon=node" vertex="1" parent="1">
          <mxGeometry x="902" y="358" width="50" height="48" as="geometry" />
        </mxCell>
        <mxCell id="hPDCbiSNPmsi-Ium7zuM-69" value="" style="endArrow=classic;html=1;rounded=0;entryX=0.005;entryY=0.63;entryDx=0;entryDy=0;entryPerimeter=0;strokeColor=#666666;" edge="1" parent="1" source="hPDCbiSNPmsi-Ium7zuM-63" target="hPDCbiSNPmsi-Ium7zuM-67">
          <mxGeometry width="50" height="50" relative="1" as="geometry">
            <mxPoint x="771" y="279" as="sourcePoint" />
            <mxPoint x="834" y="335" as="targetPoint" />
          </mxGeometry>
        </mxCell>
        <mxCell id="hPDCbiSNPmsi-Ium7zuM-70" value="" style="endArrow=classic;html=1;rounded=0;entryX=0.1;entryY=0.2;entryDx=0;entryDy=0;entryPerimeter=0;exitX=1.068;exitY=0.664;exitDx=0;exitDy=0;exitPerimeter=0;strokeColor=#666666;" edge="1" parent="1" source="hPDCbiSNPmsi-Ium7zuM-63" target="hPDCbiSNPmsi-Ium7zuM-68">
          <mxGeometry width="50" height="50" relative="1" as="geometry">
            <mxPoint x="886" y="338" as="sourcePoint" />
            <mxPoint x="912" y="317" as="targetPoint" />
          </mxGeometry>
        </mxCell>
        <mxCell id="hPDCbiSNPmsi-Ium7zuM-72" value="" style="endArrow=classic;html=1;rounded=0;entryX=0.23;entryY=0.23;entryDx=0;entryDy=0;entryPerimeter=0;exitX=0.995;exitY=0.63;exitDx=0;exitDy=0;exitPerimeter=0;strokeColor=#666666;" edge="1" parent="1" source="hPDCbiSNPmsi-Ium7zuM-67">
          <mxGeometry width="50" height="50" relative="1" as="geometry">
            <mxPoint x="886" y="338" as="sourcePoint" />
            <mxPoint x="985.8" y="328.735" as="targetPoint" />
          </mxGeometry>
        </mxCell>
        <mxCell id="hPDCbiSNPmsi-Ium7zuM-73" value="" style="endArrow=classic;html=1;rounded=0;entryX=0.07;entryY=0.9;entryDx=0;entryDy=0;entryPerimeter=0;exitX=0.9;exitY=0.2;exitDx=0;exitDy=0;exitPerimeter=0;strokeColor=#666666;" edge="1" parent="1" source="hPDCbiSNPmsi-Ium7zuM-68">
          <mxGeometry width="50" height="50" relative="1" as="geometry">
            <mxPoint x="962" y="317" as="sourcePoint" />
            <mxPoint x="976.2" y="358.54999999999995" as="targetPoint" />
          </mxGeometry>
        </mxCell>
        <mxCell id="hPDCbiSNPmsi-Ium7zuM-74" value="" style="sketch=0;html=1;dashed=0;whitespace=wrap;fillColor=#2875E2;strokeColor=#ffffff;points=[[0.005,0.63,0],[0.1,0.2,0],[0.9,0.2,0],[0.5,0,0],[0.995,0.63,0],[0.72,0.99,0],[0.5,1,0],[0.28,0.99,0]];verticalLabelPosition=bottom;align=center;verticalAlign=top;shape=mxgraph.kubernetes.icon;prIcon=node" vertex="1" parent="1">
          <mxGeometry x="1062" y="365" width="50" height="48" as="geometry" />
        </mxCell>
        <mxCell id="hPDCbiSNPmsi-Ium7zuM-75" value="" style="endArrow=classic;html=1;rounded=0;entryX=0.1;entryY=0.2;entryDx=0;entryDy=0;entryPerimeter=0;exitX=1.033;exitY=0.829;exitDx=0;exitDy=0;exitPerimeter=0;strokeColor=#666666;" edge="1" parent="1" target="hPDCbiSNPmsi-Ium7zuM-74">
          <mxGeometry width="50" height="50" relative="1" as="geometry">
            <mxPoint x="1033.98" y="355.3905" as="sourcePoint" />
            <mxPoint x="986" y="369" as="targetPoint" />
          </mxGeometry>
        </mxCell>
        <mxCell id="hPDCbiSNPmsi-Ium7zuM-77" value="" style="sketch=0;aspect=fixed;pointerEvents=1;shadow=0;dashed=0;html=1;strokeColor=none;labelPosition=center;verticalLabelPosition=bottom;verticalAlign=top;align=center;fillColor=#3399FF;shape=mxgraph.mscae.enterprise.internet_hollow" vertex="1" parent="1">
          <mxGeometry x="974" y="325.5" width="60.48" height="37.5" as="geometry" />
        </mxCell>
        <mxCell id="hPDCbiSNPmsi-Ium7zuM-78" value="" style="sketch=0;aspect=fixed;pointerEvents=1;shadow=0;dashed=0;html=1;strokeColor=none;labelPosition=center;verticalLabelPosition=bottom;verticalAlign=top;align=center;fillColor=#007FFF;shape=mxgraph.mscae.enterprise.database_generic" vertex="1" parent="1">
          <mxGeometry x="1062" y="264" width="37" height="50" as="geometry" />
        </mxCell>
        <mxCell id="hPDCbiSNPmsi-Ium7zuM-79" value="" style="endArrow=classic;html=1;rounded=0;exitX=0.9;exitY=0.2;exitDx=0;exitDy=0;exitPerimeter=0;strokeColor=#666666;" edge="1" parent="1">
          <mxGeometry width="50" height="50" relative="1" as="geometry">
            <mxPoint x="951" y="286.6" as="sourcePoint" />
            <mxPoint x="1056" y="287" as="targetPoint" />
          </mxGeometry>
        </mxCell>
        <mxCell id="hPDCbiSNPmsi-Ium7zuM-80" value="" style="endArrow=classic;html=1;rounded=0;entryX=0.541;entryY=0.98;entryDx=0;entryDy=0;entryPerimeter=0;strokeColor=#666666;" edge="1" parent="1" target="hPDCbiSNPmsi-Ium7zuM-78">
          <mxGeometry width="50" height="50" relative="1" as="geometry">
            <mxPoint x="1082" y="363" as="sourcePoint" />
            <mxPoint x="1082" y="323" as="targetPoint" />
          </mxGeometry>
        </mxCell>
        <mxCell id="hPDCbiSNPmsi-Ium7zuM-81" value="银企直联" style="sketch=0;aspect=fixed;pointerEvents=1;shadow=0;dashed=0;html=1;strokeColor=none;labelPosition=center;verticalLabelPosition=bottom;verticalAlign=top;align=center;fillColor=#007FFF;shape=mxgraph.azure.certificate" vertex="1" parent="1">
          <mxGeometry x="810" y="201" width="50" height="40" as="geometry" />
        </mxCell>
        <mxCell id="hPDCbiSNPmsi-Ium7zuM-84" value="司库衔接" style="sketch=0;aspect=fixed;pointerEvents=1;shadow=0;dashed=0;html=1;strokeColor=none;labelPosition=center;verticalLabelPosition=bottom;verticalAlign=top;align=center;fillColor=#007FFF;shape=mxgraph.mscae.enterprise.d" vertex="1" parent="1">
          <mxGeometry x="952" y="196" width="40" height="50" as="geometry" />
        </mxCell>
        <mxCell id="hPDCbiSNPmsi-Ium7zuM-85" value="" style="endArrow=classic;html=1;rounded=0;entryX=0.93;entryY=0.92;entryDx=0;entryDy=0;entryPerimeter=0;exitX=0.1;exitY=0.2;exitDx=0;exitDy=0;exitPerimeter=0;strokeColor=#666666;" edge="1" parent="1" source="hPDCbiSNPmsi-Ium7zuM-67" target="hPDCbiSNPmsi-Ium7zuM-81">
          <mxGeometry width="50" height="50" relative="1" as="geometry">
            <mxPoint x="886" y="338" as="sourcePoint" />
            <mxPoint x="912" y="317" as="targetPoint" />
          </mxGeometry>
        </mxCell>
        <mxCell id="hPDCbiSNPmsi-Ium7zuM-86" value="" style="endArrow=classic;html=1;rounded=0;exitX=0.5;exitY=0;exitDx=0;exitDy=0;exitPerimeter=0;strokeColor=#666666;" edge="1" parent="1" source="hPDCbiSNPmsi-Ium7zuM-67" target="hPDCbiSNPmsi-Ium7zuM-84">
          <mxGeometry width="50" height="50" relative="1" as="geometry">
            <mxPoint x="917" y="297" as="sourcePoint" />
            <mxPoint x="860" y="260" as="targetPoint" />
          </mxGeometry>
        </mxCell>
      </root>
    </mxGraphModel>
  </diagram>
</mxfile>
